<?xml version="1.0" encoding="utf-8"?>
<!-- Generator: Adobe Illustrator 24.1.2, SVG Export Plug-In . SVG Version: 6.00 Build 0)  -->
<svg version="1.1" id="Layer_1" xmlns="http://www.w3.org/2000/svg" xmlns:xlink="http://www.w3.org/1999/xlink" x="0px" y="0px"
	 viewBox="0 0 150 80" style="enable-background:new 0 0 150 80;" xml:space="preserve">
<style type="text/css">
	.st0{fill:#F8991D;}
	.st1{fill:#A9AAAC;}
	.st2{fill:#FFFFFF;}
</style>
<g>
	<polygon class="st0" points="15.6,34.8 45,5.2 103.4,34.8 64.7,45.3 	"/>
	<polygon class="st1" points="77.1,19.1 105.1,5.2 134.4,34.8 85,45.3 77.1,43.3 107.8,35.1 	"/>
</g>
<g>
	<path class="st2" d="M14.1,62.2c0.2,0,0.3,0.1,0.4,0.2l1.1,1.2c-0.6,0.7-1.3,1.2-2.1,1.6s-1.8,0.6-2.9,0.6c-1,0-2-0.2-2.8-0.5
		c-0.8-0.3-1.5-0.8-2.1-1.5c-0.6-0.6-1-1.4-1.3-2.2s-0.5-1.8-0.5-2.8c0-0.7,0.1-1.3,0.2-2c0.2-0.6,0.4-1.2,0.7-1.7
		c0.3-0.5,0.6-1,1-1.4c0.4-0.4,0.9-0.8,1.4-1.1c0.5-0.3,1.1-0.5,1.7-0.7c0.6-0.2,1.2-0.2,1.9-0.2c0.5,0,1,0,1.4,0.1
		c0.4,0.1,0.9,0.2,1.3,0.4s0.8,0.3,1.1,0.6c0.3,0.2,0.6,0.5,0.9,0.7l-1,1.3c-0.1,0.1-0.1,0.2-0.2,0.2s-0.2,0.1-0.4,0.1
		s-0.3,0-0.5-0.2c-0.2-0.1-0.4-0.2-0.6-0.4c-0.2-0.1-0.5-0.3-0.9-0.4s-0.8-0.2-1.3-0.2c-0.6,0-1.1,0.1-1.6,0.3
		c-0.5,0.2-0.9,0.5-1.2,0.9c-0.3,0.4-0.6,0.9-0.8,1.5c-0.2,0.6-0.3,1.2-0.3,2s0.1,1.4,0.3,2c0.2,0.6,0.5,1.1,0.8,1.5
		s0.8,0.7,1.3,0.9c0.5,0.2,1,0.3,1.5,0.3c0.3,0,0.6,0,0.9,0s0.5-0.1,0.7-0.2s0.4-0.2,0.6-0.3c0.2-0.1,0.4-0.3,0.6-0.5
		c0.1-0.1,0.1-0.1,0.2-0.1C14,62.2,14,62.2,14.1,62.2z"/>
	<path class="st2" d="M30.3,58.7c0,1-0.2,1.9-0.5,2.8s-0.8,1.6-1.4,2.2c-0.6,0.6-1.4,1.1-2.2,1.5c-0.9,0.4-1.8,0.5-2.9,0.5
		s-2-0.2-2.9-0.5c-0.9-0.4-1.6-0.8-2.2-1.5c-0.6-0.6-1.1-1.4-1.4-2.2s-0.5-1.8-0.5-2.8c0-1,0.2-1.9,0.5-2.8s0.8-1.6,1.4-2.2
		s1.4-1.1,2.2-1.5c0.9-0.4,1.8-0.5,2.9-0.5s2,0.2,2.9,0.5c0.9,0.4,1.6,0.8,2.2,1.5c0.6,0.6,1.1,1.4,1.4,2.2S30.3,57.7,30.3,58.7z
		 M27.4,58.7c0-0.7-0.1-1.4-0.3-1.9s-0.5-1.1-0.8-1.5c-0.4-0.4-0.8-0.7-1.3-0.9c-0.5-0.2-1.1-0.3-1.7-0.3c-0.6,0-1.2,0.1-1.7,0.3
		s-1,0.5-1.3,0.9c-0.4,0.4-0.6,0.9-0.8,1.5s-0.3,1.2-0.3,1.9c0,0.7,0.1,1.4,0.3,2s0.5,1.1,0.8,1.5c0.4,0.4,0.8,0.7,1.3,0.9
		c0.5,0.2,1.1,0.3,1.7,0.3s1.2-0.1,1.7-0.3s0.9-0.5,1.3-0.9c0.4-0.4,0.6-0.9,0.8-1.5C27.3,60.1,27.4,59.4,27.4,58.7z"/>
	<path class="st2" d="M38,63.3c0.5,0,0.9-0.1,1.3-0.2c0.4-0.2,0.7-0.4,0.9-0.7c0.3-0.3,0.5-0.6,0.6-1S41,60.5,41,60v-8.2h2.8V60
		c0,0.8-0.1,1.6-0.4,2.3s-0.7,1.3-1.2,1.8c-0.5,0.5-1.1,0.9-1.8,1.2s-1.5,0.4-2.4,0.4c-0.9,0-1.7-0.1-2.4-0.4
		c-0.7-0.3-1.3-0.7-1.8-1.2c-0.5-0.5-0.9-1.1-1.2-1.8c-0.3-0.7-0.4-1.5-0.4-2.3v-8.2h2.8V60c0,0.5,0.1,1,0.2,1.4s0.3,0.8,0.6,1
		s0.6,0.5,0.9,0.7C37.2,63.2,37.6,63.3,38,63.3z"/>
	<path class="st2" d="M58.4,51.8v13.8h-1.5c-0.2,0-0.4,0-0.6-0.1s-0.3-0.2-0.5-0.4L49,56.3c0,0.2,0,0.4,0,0.7c0,0.2,0,0.4,0,0.6v8
		h-2.5V51.8H48c0.1,0,0.2,0,0.3,0s0.2,0,0.2,0.1c0.1,0,0.1,0.1,0.2,0.1c0.1,0.1,0.1,0.1,0.2,0.2l6.9,8.8c0-0.2,0-0.5-0.1-0.7
		s0-0.4,0-0.6v-7.9C55.8,51.8,58.4,51.8,58.4,51.8z"/>
	<path class="st2" d="M71,54.1h-4v11.5h-2.9V54.1h-4v-2.3H71V54.1z"/>
	<path class="st2" d="M83.8,65.6h-2.6c-0.5,0-0.8-0.2-1.1-0.6l-2.6-4.2c-0.1-0.2-0.2-0.3-0.4-0.4c-0.1-0.1-0.3-0.1-0.6-0.1h-1v5.3
		h-2.8V51.8h4.3c1,0,1.8,0.1,2.5,0.3s1.3,0.5,1.7,0.8c0.4,0.3,0.8,0.8,1,1.3s0.3,1,0.3,1.6c0,0.5-0.1,0.9-0.2,1.3
		c-0.1,0.4-0.3,0.8-0.6,1.1s-0.6,0.6-0.9,0.9s-0.8,0.5-1.2,0.6c0.2,0.1,0.3,0.2,0.5,0.4c0.2,0.1,0.3,0.3,0.4,0.5L83.8,65.6z
		 M77.1,58.3c0.5,0,0.9-0.1,1.2-0.2s0.6-0.3,0.8-0.5c0.2-0.2,0.4-0.5,0.5-0.7c0.1-0.3,0.2-0.6,0.2-0.9c0-0.7-0.2-1.2-0.7-1.5
		S78,54,77.1,54h-1.5v4.4H77.1z"/>
	<path class="st2" d="M90.7,60.3v5.3h-2.8v-5.3l-5-8.5h2.5c0.3,0,0.4,0.1,0.6,0.2c0.2,0.1,0.3,0.3,0.4,0.5l2.3,4.3
		c0.2,0.3,0.3,0.6,0.4,0.8c0.1,0.3,0.2,0.5,0.3,0.8c0.1-0.3,0.2-0.5,0.3-0.8c0.1-0.3,0.3-0.5,0.4-0.8l2.2-4.3
		c0.1-0.2,0.2-0.3,0.3-0.4c0.2-0.1,0.3-0.2,0.6-0.2h2.5L90.7,60.3z"/>
	<path class="st2" d="M115.5,51.8l-4.3,13.8h-2.6l-2.8-9c0-0.1-0.1-0.3-0.1-0.4c0-0.2-0.1-0.3-0.1-0.5c0,0.2-0.1,0.3-0.1,0.5
		c0,0.2-0.1,0.3-0.1,0.4l-2.8,9h-2.6l-4.3-13.8H98c0.3,0,0.4,0.1,0.6,0.2c0.2,0.1,0.3,0.3,0.3,0.5l2.1,7.8c0.1,0.2,0.1,0.5,0.2,0.7
		c0.1,0.3,0.1,0.5,0.2,0.8c0.1-0.3,0.1-0.5,0.2-0.8s0.1-0.5,0.2-0.7l2.5-7.8c0.1-0.2,0.2-0.3,0.3-0.4s0.4-0.2,0.6-0.2h0.8
		c0.3,0,0.4,0.1,0.6,0.2c0.2,0.1,0.3,0.3,0.3,0.5l2.5,7.8c0.1,0.2,0.2,0.4,0.2,0.7s0.1,0.5,0.2,0.8c0.1-0.3,0.1-0.5,0.2-0.8
		c0.1-0.2,0.1-0.5,0.2-0.7l2.1-7.8c0-0.2,0.2-0.3,0.3-0.4c0.2-0.1,0.4-0.2,0.6-0.2L115.5,51.8L115.5,51.8z"/>
	<path class="st2" d="M119.9,65.6H117V51.8h2.9V65.6z"/>
	<path class="st2" d="M135.2,58.7c0,1-0.2,1.9-0.5,2.8s-0.8,1.6-1.4,2.2c-0.6,0.6-1.4,1.1-2.2,1.4c-0.9,0.3-1.8,0.5-2.9,0.5h-5.3
		V51.8h5.3c1.1,0,2,0.2,2.9,0.5s1.6,0.8,2.2,1.4s1.1,1.3,1.4,2.2C135,56.8,135.2,57.7,135.2,58.7z M132.2,58.7c0-0.7-0.1-1.4-0.3-2
		s-0.5-1.1-0.8-1.5c-0.4-0.4-0.8-0.7-1.3-0.9c-0.5-0.2-1.1-0.3-1.7-0.3h-2.4v9.3h2.4c0.6,0,1.2-0.1,1.7-0.3c0.5-0.2,0.9-0.5,1.3-0.9
		c0.4-0.4,0.6-0.9,0.8-1.5C132.1,60.1,132.2,59.4,132.2,58.7z"/>
	<path class="st2" d="M140.1,54v3.5h4.6v2.2h-4.6v3.6h5.9v2.2h-8.8V51.8h8.8V54L140.1,54L140.1,54z"/>
</g>
<g>
	<path class="st0" d="M82.6,73.3c0.1,0,0.1,0,0.1,0.1l0.4,0.4c-0.3,0.3-0.6,0.6-1,0.8s-0.9,0.3-1.5,0.3c-0.5,0-0.9-0.1-1.4-0.3
		c-0.4-0.2-0.8-0.4-1-0.7c-0.3-0.3-0.5-0.7-0.7-1.1c-0.2-0.4-0.2-0.9-0.2-1.4s0.1-1,0.3-1.4c0.2-0.4,0.4-0.8,0.7-1.1
		c0.3-0.3,0.7-0.6,1.1-0.7c0.4-0.2,0.9-0.3,1.4-0.3c0.5,0,0.9,0.1,1.3,0.2c0.4,0.2,0.7,0.4,1,0.7L82.7,69c0,0,0,0.1-0.1,0.1
		c0,0-0.1,0-0.1,0c-0.1,0-0.1,0-0.2-0.1s-0.2-0.1-0.3-0.2s-0.3-0.2-0.5-0.2c-0.2-0.1-0.4-0.1-0.8-0.1c-0.4,0-0.7,0.1-1,0.2
		c-0.3,0.1-0.6,0.3-0.8,0.5c-0.2,0.2-0.4,0.5-0.5,0.9s-0.2,0.7-0.2,1.2s0.1,0.8,0.2,1.2c0.1,0.3,0.3,0.6,0.5,0.9s0.5,0.4,0.8,0.5
		C80,74,80.3,74,80.7,74c0.2,0,0.4,0,0.6,0c0.2,0,0.3-0.1,0.5-0.1s0.3-0.1,0.4-0.2c0.1-0.1,0.2-0.2,0.4-0.3
		C82.5,73.3,82.5,73.3,82.6,73.3z"/>
	<path class="st0" d="M92.4,74v0.8h-4.3v-6.9h4.3v0.8H89v2.3h2.7v0.7H89V74H92.4z"/>
	<path class="st0" d="M98.5,74.8h-0.9v-6.9h0.9V74.8z"/>
	<path class="st0" d="M108.1,74v0.8h-3.9v-6.9h0.9V74H108.1z"/>
	<path class="st0" d="M114,74.8H113v-6.9h0.9V74.8z"/>
	<path class="st0" d="M125.3,67.8v6.9h-0.5c-0.1,0-0.1,0-0.2,0s-0.1-0.1-0.2-0.1l-4-5.2c0,0.1,0,0.2,0,0.2c0,0.1,0,0.2,0,0.2v4.9
		h-0.8v-6.9h0.5c0,0,0.1,0,0.1,0c0,0,0.1,0,0.1,0c0,0,0.1,0,0.1,0.1c0,0,0.1,0.1,0.1,0.1l4,5.2c0-0.1,0-0.2,0-0.2c0-0.1,0-0.2,0-0.2
		v-4.9C124.4,67.8,125.3,67.8,125.3,67.8z"/>
	<path class="st0" d="M136.6,71.4v2.7c-0.4,0.3-0.7,0.4-1.1,0.6s-0.8,0.2-1.3,0.2c-0.6,0-1.1-0.1-1.5-0.3c-0.4-0.2-0.8-0.4-1.1-0.7
		c-0.3-0.3-0.6-0.7-0.7-1.1c-0.2-0.4-0.3-0.9-0.3-1.4c0-0.5,0.1-1,0.3-1.4c0.2-0.4,0.4-0.8,0.7-1.1s0.7-0.6,1.1-0.7
		c0.4-0.2,0.9-0.3,1.5-0.3c0.3,0,0.5,0,0.8,0.1s0.4,0.1,0.6,0.2c0.2,0.1,0.4,0.2,0.6,0.3s0.3,0.2,0.5,0.4l-0.3,0.4
		c0,0.1-0.1,0.1-0.2,0.1c-0.1,0-0.1,0-0.2-0.1s-0.2-0.1-0.3-0.2c-0.1-0.1-0.2-0.1-0.4-0.2s-0.3-0.1-0.5-0.2s-0.4-0.1-0.7-0.1
		c-0.4,0-0.8,0.1-1.1,0.2c-0.3,0.1-0.6,0.3-0.8,0.6c-0.2,0.2-0.4,0.5-0.5,0.9s-0.2,0.7-0.2,1.1c0,0.4,0.1,0.8,0.2,1.2
		c0.1,0.3,0.3,0.6,0.5,0.9s0.5,0.4,0.8,0.6c0.3,0.1,0.7,0.2,1.1,0.2c0.3,0,0.6,0,0.9-0.1s0.5-0.2,0.7-0.3v-1.5h-1.1
		c-0.1,0-0.1,0-0.1-0.1c0,0-0.1-0.1-0.1-0.1v-0.5L136.6,71.4L136.6,71.4z"/>
	<path class="st0" d="M145.4,68.9c0,0.1-0.1,0.1-0.1,0.1c0,0-0.1,0-0.1,0c-0.1,0-0.1,0-0.2-0.1s-0.2-0.1-0.3-0.2
		c-0.1-0.1-0.3-0.1-0.4-0.2c-0.2-0.1-0.4-0.1-0.6-0.1c-0.2,0-0.4,0-0.6,0.1c-0.2,0.1-0.3,0.1-0.4,0.2c-0.1,0.1-0.2,0.2-0.2,0.3
		s-0.1,0.3-0.1,0.4c0,0.2,0.1,0.3,0.1,0.5c0.1,0.1,0.2,0.2,0.4,0.3c0.2,0.1,0.3,0.2,0.5,0.2s0.4,0.1,0.6,0.2
		c0.2,0.1,0.4,0.2,0.6,0.2s0.4,0.2,0.5,0.3c0.2,0.1,0.3,0.3,0.4,0.5s0.1,0.4,0.1,0.7c0,0.3-0.1,0.6-0.1,0.9
		c-0.1,0.3-0.3,0.5-0.4,0.7s-0.4,0.3-0.7,0.5c-0.3,0.1-0.6,0.2-1,0.2c-0.4,0-0.9-0.1-1.2-0.2c-0.4-0.2-0.7-0.4-0.9-0.7l0.3-0.4
		c0,0,0.1-0.1,0.1-0.1c0,0,0.1,0,0.1,0s0.1,0,0.1,0.1c0.1,0,0.1,0.1,0.2,0.1c0.1,0.1,0.1,0.1,0.2,0.2c0.1,0.1,0.2,0.1,0.3,0.2
		c0.1,0.1,0.2,0.1,0.4,0.1c0.1,0,0.3,0.1,0.5,0.1c0.2,0,0.4,0,0.6-0.1c0.2-0.1,0.3-0.2,0.4-0.3s0.2-0.3,0.3-0.4
		c0.1-0.2,0.1-0.3,0.1-0.5c0-0.2-0.1-0.4-0.1-0.5c-0.1-0.1-0.2-0.3-0.4-0.3s-0.3-0.2-0.5-0.2c-0.2-0.1-0.4-0.1-0.6-0.2
		c-0.2-0.1-0.4-0.1-0.6-0.2c-0.2-0.1-0.4-0.2-0.5-0.3c-0.2-0.1-0.3-0.3-0.4-0.5s-0.1-0.5-0.1-0.8c0-0.3,0.1-0.5,0.1-0.7
		c0.1-0.2,0.2-0.4,0.4-0.6c0.2-0.2,0.4-0.3,0.7-0.4c0.3-0.1,0.6-0.2,0.9-0.2c0.4,0,0.7,0.1,1.1,0.2c0.3,0.1,0.6,0.3,0.8,0.5
		L145.4,68.9z"/>
</g>
</svg>
