<?xml version="1.0" encoding="utf-8"?>
<!-- Generator: Adobe Illustrator 24.1.2, SVG Export Plug-In . SVG Version: 6.00 Build 0)  -->
<svg version="1.1" id="Layer_1" xmlns="http://www.w3.org/2000/svg" xmlns:xlink="http://www.w3.org/1999/xlink" x="0px" y="0px"
	 viewBox="0 0 150 80" style="enable-background:new 0 0 150 80;" xml:space="preserve">
<style type="text/css">
	.st0{fill:#F8991D;}
	.st1{fill:#A9AAAC;}
	.st2{fill:#414042;}
</style>
<g>
	<g>
		<polygon class="st0" points="15.59,34.8 44.95,5.16 103.4,34.8 64.71,45.29 		"/>
		<polygon class="st1" points="77.06,19.15 105.05,5.16 134.41,34.8 85.02,45.29 77.06,43.3 107.79,35.07 		"/>
	</g>
	<g>
		<path class="st2" d="M14.13,62.19c0.16,0,0.29,0.06,0.4,0.17l1.13,1.21c-0.56,0.71-1.25,1.25-2.08,1.62
			c-0.83,0.37-1.81,0.55-2.95,0.55c-1.03,0-1.96-0.18-2.79-0.53c-0.82-0.35-1.52-0.84-2.1-1.47c-0.58-0.63-1.02-1.37-1.33-2.23
			c-0.31-0.86-0.47-1.8-0.47-2.82c0-0.68,0.07-1.34,0.22-1.95c0.15-0.62,0.37-1.19,0.65-1.71c0.29-0.52,0.63-0.99,1.03-1.41
			c0.4-0.42,0.86-0.77,1.36-1.07c0.51-0.29,1.06-0.52,1.66-0.67c0.6-0.16,1.24-0.23,1.92-0.23c0.51,0,0.99,0.04,1.44,0.13
			c0.45,0.09,0.88,0.21,1.27,0.37c0.39,0.16,0.76,0.35,1.09,0.58c0.33,0.23,0.63,0.47,0.9,0.74l-0.96,1.31
			c-0.06,0.08-0.13,0.16-0.22,0.22c-0.09,0.06-0.21,0.1-0.36,0.1c-0.15,0-0.31-0.05-0.46-0.16c-0.16-0.11-0.35-0.23-0.57-0.36
			c-0.23-0.13-0.51-0.25-0.85-0.36c-0.34-0.11-0.77-0.16-1.29-0.16c-0.58,0-1.11,0.1-1.59,0.31c-0.48,0.21-0.9,0.51-1.24,0.91
			c-0.35,0.4-0.61,0.88-0.8,1.46c-0.19,0.58-0.29,1.23-0.29,1.97c0,0.74,0.1,1.4,0.31,1.98c0.21,0.58,0.49,1.07,0.85,1.47
			c0.36,0.4,0.78,0.7,1.25,0.91c0.48,0.21,0.99,0.31,1.54,0.31c0.32,0,0.62-0.02,0.88-0.05c0.26-0.03,0.51-0.09,0.73-0.16
			s0.44-0.17,0.64-0.29c0.2-0.12,0.4-0.27,0.6-0.46c0.07-0.06,0.14-0.1,0.22-0.14C13.96,62.21,14.04,62.19,14.13,62.19z"/>
		<path class="st2" d="M30.29,58.69c0,1.01-0.17,1.94-0.51,2.8c-0.34,0.86-0.82,1.61-1.44,2.23c-0.62,0.63-1.36,1.12-2.23,1.48
			c-0.87,0.36-1.83,0.54-2.89,0.54c-1.06,0-2.02-0.18-2.89-0.54c-0.87-0.36-1.61-0.85-2.23-1.48c-0.62-0.63-1.1-1.37-1.44-2.23
			c-0.34-0.86-0.51-1.8-0.51-2.8c0-1.01,0.17-1.94,0.51-2.8c0.34-0.86,0.82-1.6,1.44-2.23c0.62-0.63,1.37-1.12,2.23-1.48
			c0.87-0.36,1.83-0.54,2.89-0.54c1.06,0,2.02,0.18,2.89,0.54c0.87,0.36,1.61,0.85,2.23,1.48c0.62,0.63,1.1,1.38,1.44,2.23
			S30.29,57.68,30.29,58.69z M27.38,58.69c0-0.72-0.1-1.37-0.29-1.94c-0.19-0.57-0.46-1.06-0.82-1.46c-0.36-0.4-0.79-0.71-1.3-0.92
			c-0.51-0.21-1.09-0.32-1.73-0.32c-0.65,0-1.23,0.11-1.74,0.32c-0.51,0.21-0.95,0.52-1.31,0.92c-0.36,0.4-0.63,0.89-0.82,1.46
			c-0.19,0.57-0.29,1.22-0.29,1.94c0,0.73,0.1,1.38,0.29,1.95c0.19,0.57,0.46,1.06,0.82,1.46c0.36,0.4,0.79,0.71,1.31,0.92
			c0.51,0.21,1.09,0.32,1.74,0.32c0.65,0,1.22-0.11,1.73-0.32c0.51-0.21,0.94-0.52,1.3-0.92c0.36-0.4,0.63-0.89,0.82-1.46
			C27.28,60.07,27.38,59.41,27.38,58.69z"/>
		<path class="st2" d="M38.03,63.31c0.46,0,0.88-0.08,1.25-0.23c0.37-0.16,0.68-0.38,0.93-0.66c0.25-0.29,0.45-0.63,0.58-1.04
			c0.13-0.41,0.2-0.86,0.2-1.37v-8.21h2.85v8.21c0,0.84-0.13,1.61-0.4,2.31c-0.27,0.7-0.65,1.3-1.16,1.81
			c-0.5,0.51-1.11,0.9-1.83,1.19c-0.72,0.29-1.52,0.43-2.42,0.43c-0.9,0-1.71-0.14-2.43-0.43c-0.72-0.28-1.33-0.68-1.83-1.19
			c-0.5-0.51-0.89-1.11-1.15-1.81c-0.27-0.7-0.4-1.47-0.4-2.31v-8.21h2.85v8.21c0,0.51,0.07,0.96,0.2,1.37
			c0.13,0.41,0.33,0.75,0.58,1.04c0.25,0.29,0.56,0.51,0.93,0.66C37.15,63.23,37.56,63.31,38.03,63.31z"/>
		<path class="st2" d="M58.38,51.79v13.79H56.9c-0.22,0-0.41-0.04-0.56-0.11c-0.15-0.07-0.3-0.2-0.45-0.38l-6.87-8.75
			c0.02,0.22,0.03,0.44,0.04,0.66c0.01,0.22,0.01,0.42,0.01,0.6v7.98h-2.52V51.79h1.5c0.12,0,0.22,0,0.31,0.01
			c0.09,0.01,0.16,0.03,0.23,0.07c0.07,0.03,0.14,0.08,0.2,0.14c0.06,0.06,0.13,0.13,0.21,0.23l6.92,8.78
			c-0.03-0.24-0.04-0.47-0.06-0.7s-0.02-0.44-0.02-0.64v-7.89H58.38z"/>
		<path class="st2" d="M71.03,54.09H67v11.49h-2.86V54.09h-4.03v-2.3h10.92V54.09z"/>
		<path class="st2" d="M83.75,65.59h-2.58c-0.48,0-0.83-0.18-1.05-0.55l-2.62-4.23c-0.11-0.16-0.23-0.29-0.36-0.36
			c-0.13-0.08-0.32-0.11-0.58-0.11H75.6v5.26h-2.85V51.79h4.34c0.96,0,1.79,0.1,2.47,0.3c0.68,0.2,1.25,0.48,1.68,0.83
			c0.44,0.35,0.76,0.78,0.96,1.27c0.2,0.49,0.3,1.03,0.3,1.62c0,0.46-0.07,0.89-0.19,1.3c-0.13,0.41-0.32,0.78-0.57,1.12
			c-0.25,0.34-0.55,0.63-0.91,0.89c-0.36,0.26-0.77,0.47-1.24,0.63c0.18,0.1,0.35,0.22,0.51,0.37c0.16,0.14,0.3,0.31,0.43,0.51
			L83.75,65.59z M77.07,58.32c0.46,0,0.86-0.06,1.2-0.18c0.34-0.12,0.61-0.28,0.83-0.48c0.22-0.21,0.37-0.45,0.48-0.73
			c0.1-0.28,0.15-0.58,0.15-0.91c0-0.65-0.22-1.16-0.65-1.52c-0.43-0.36-1.09-0.54-1.98-0.54H75.6v4.36H77.07z"/>
		<path class="st2" d="M90.65,60.28v5.3H87.8v-5.3l-5.01-8.49h2.51c0.25,0,0.45,0.06,0.59,0.18c0.15,0.12,0.27,0.27,0.36,0.45
			l2.26,4.34c0.15,0.29,0.29,0.56,0.41,0.82c0.12,0.25,0.23,0.51,0.33,0.76c0.09-0.25,0.19-0.51,0.31-0.77
			c0.12-0.26,0.25-0.53,0.39-0.81l2.24-4.34c0.08-0.15,0.19-0.29,0.34-0.43c0.15-0.13,0.35-0.2,0.59-0.2h2.53L90.65,60.28z"/>
		<path class="st2" d="M115.49,51.79l-4.28,13.79h-2.58l-2.82-9.02c-0.04-0.13-0.09-0.27-0.13-0.42c-0.04-0.15-0.09-0.31-0.12-0.48
			c-0.04,0.17-0.08,0.33-0.12,0.48c-0.04,0.15-0.09,0.29-0.13,0.42l-2.85,9.02h-2.59l-4.27-13.79h2.4c0.25,0,0.45,0.06,0.62,0.17
			c0.17,0.11,0.28,0.27,0.33,0.46l2.14,7.78c0.05,0.22,0.1,0.45,0.16,0.7c0.05,0.25,0.11,0.52,0.16,0.79
			c0.06-0.28,0.12-0.55,0.18-0.8c0.06-0.25,0.13-0.48,0.21-0.69l2.49-7.78c0.05-0.16,0.16-0.3,0.33-0.43
			c0.17-0.13,0.37-0.19,0.61-0.19h0.84c0.25,0,0.45,0.06,0.6,0.18c0.16,0.12,0.27,0.27,0.35,0.45l2.48,7.78
			c0.08,0.2,0.15,0.42,0.21,0.66c0.06,0.24,0.12,0.49,0.18,0.76c0.05-0.27,0.1-0.52,0.15-0.76c0.05-0.24,0.1-0.46,0.15-0.66
			l2.14-7.78c0.04-0.16,0.15-0.31,0.32-0.44c0.17-0.13,0.38-0.19,0.62-0.19H115.49z"/>
		<path class="st2" d="M119.91,65.59h-2.87V51.79h2.87V65.59z"/>
		<path class="st2" d="M135.16,58.69c0,1.01-0.17,1.93-0.51,2.78c-0.34,0.85-0.82,1.57-1.44,2.18c-0.62,0.61-1.36,1.08-2.23,1.43
			c-0.87,0.34-1.83,0.51-2.89,0.51h-5.3V51.79h5.3c1.06,0,2.02,0.17,2.89,0.51c0.87,0.34,1.61,0.82,2.23,1.43
			c0.62,0.61,1.1,1.34,1.44,2.18C134.99,56.76,135.16,57.68,135.16,58.69z M132.24,58.69c0-0.72-0.09-1.37-0.28-1.95
			c-0.19-0.58-0.46-1.06-0.82-1.46c-0.35-0.4-0.79-0.71-1.3-0.92c-0.51-0.22-1.09-0.32-1.74-0.32h-2.43v9.33h2.43
			c0.65,0,1.22-0.11,1.74-0.32c0.51-0.21,0.94-0.52,1.3-0.92c0.35-0.4,0.63-0.89,0.82-1.47C132.14,60.07,132.24,59.41,132.24,58.69z
			"/>
		<path class="st2" d="M140.14,54.03v3.55h4.6v2.16h-4.6v3.62h5.91v2.23h-8.78V51.79h8.78v2.23H140.14z"/>
	</g>
	<g>
		<path class="st0" d="M82.6,73.33c0.05,0,0.1,0.02,0.14,0.06l0.37,0.4c-0.28,0.33-0.63,0.59-1.04,0.77
			c-0.41,0.18-0.9,0.28-1.47,0.28c-0.5,0-0.95-0.09-1.36-0.26c-0.41-0.17-0.76-0.42-1.04-0.73c-0.29-0.31-0.51-0.69-0.67-1.12
			c-0.16-0.44-0.24-0.92-0.24-1.44s0.08-1,0.25-1.44c0.16-0.44,0.4-0.81,0.7-1.13c0.3-0.31,0.66-0.56,1.07-0.73
			c0.42-0.17,0.88-0.26,1.38-0.26c0.49,0,0.93,0.08,1.31,0.24c0.38,0.16,0.71,0.37,1,0.65l-0.31,0.43
			c-0.02,0.03-0.04,0.06-0.08,0.08c-0.03,0.02-0.07,0.03-0.12,0.03c-0.06,0-0.13-0.03-0.21-0.09c-0.08-0.06-0.19-0.13-0.33-0.21
			c-0.14-0.08-0.31-0.15-0.51-0.21c-0.2-0.06-0.45-0.09-0.75-0.09c-0.36,0-0.69,0.06-0.98,0.19c-0.3,0.12-0.55,0.3-0.77,0.54
			c-0.22,0.24-0.38,0.52-0.5,0.86s-0.18,0.72-0.18,1.15c0,0.43,0.06,0.82,0.19,1.16c0.12,0.34,0.29,0.63,0.51,0.86
			c0.22,0.23,0.47,0.41,0.76,0.54c0.29,0.12,0.61,0.18,0.95,0.18c0.21,0,0.39-0.01,0.56-0.04c0.17-0.02,0.32-0.06,0.46-0.11
			c0.14-0.05,0.27-0.12,0.39-0.2c0.12-0.08,0.24-0.17,0.36-0.28C82.49,73.35,82.54,73.33,82.6,73.33z"/>
		<path class="st0" d="M92.36,74l0,0.77h-4.28v-6.95h4.28v0.77h-3.34v2.31h2.71v0.74h-2.71V74H92.36z"/>
		<path class="st0" d="M98.5,74.76h-0.94v-6.95h0.94V74.76z"/>
		<path class="st0" d="M108.1,73.97v0.79h-3.94v-6.95h0.94v6.16H108.1z"/>
		<path class="st0" d="M113.96,74.76h-0.94v-6.95h0.94V74.76z"/>
		<path class="st0" d="M125.25,67.81v6.95h-0.47c-0.07,0-0.14-0.01-0.19-0.04c-0.05-0.03-0.1-0.07-0.15-0.13l-4.02-5.24
			c0.01,0.08,0.01,0.16,0.01,0.24c0,0.08,0,0.15,0,0.22v4.95h-0.82v-6.95h0.49c0.04,0,0.08,0,0.11,0.01c0.03,0,0.05,0.01,0.08,0.02
			c0.02,0.01,0.05,0.03,0.07,0.05c0.02,0.02,0.05,0.05,0.07,0.08l4.02,5.23c-0.01-0.08-0.01-0.17-0.02-0.24
			c0-0.08-0.01-0.15-0.01-0.23v-4.92H125.25z"/>
		<path class="st0" d="M136.55,71.42v2.67c-0.35,0.25-0.72,0.44-1.12,0.57s-0.83,0.19-1.3,0.19c-0.56,0-1.06-0.09-1.51-0.26
			c-0.45-0.17-0.83-0.42-1.15-0.73c-0.32-0.31-0.56-0.69-0.74-1.12c-0.17-0.44-0.26-0.92-0.26-1.44c0-0.53,0.08-1.01,0.25-1.45
			c0.17-0.44,0.4-0.81,0.71-1.12s0.68-0.55,1.12-0.73c0.44-0.17,0.93-0.26,1.47-0.26c0.27,0,0.53,0.02,0.77,0.06
			c0.24,0.04,0.45,0.1,0.65,0.17c0.2,0.08,0.39,0.17,0.56,0.28c0.17,0.11,0.33,0.23,0.48,0.37l-0.27,0.43
			c-0.04,0.06-0.1,0.11-0.16,0.12c-0.07,0.02-0.14,0-0.22-0.05c-0.08-0.05-0.17-0.1-0.27-0.17c-0.1-0.06-0.22-0.13-0.37-0.19
			s-0.31-0.11-0.51-0.15c-0.2-0.04-0.43-0.06-0.7-0.06c-0.39,0-0.75,0.06-1.06,0.19c-0.32,0.13-0.59,0.31-0.81,0.55
			c-0.22,0.24-0.39,0.53-0.51,0.86s-0.18,0.72-0.18,1.14c0,0.44,0.06,0.83,0.19,1.17c0.12,0.34,0.3,0.64,0.53,0.88
			c0.23,0.24,0.51,0.42,0.84,0.55c0.33,0.13,0.7,0.19,1.11,0.19c0.32,0,0.61-0.04,0.86-0.11c0.25-0.07,0.5-0.17,0.74-0.3v-1.53
			h-1.08c-0.06,0-0.11-0.02-0.15-0.05c-0.04-0.04-0.06-0.08-0.06-0.13v-0.53H136.55z"/>
		<path class="st0" d="M145.43,68.9c-0.03,0.05-0.06,0.08-0.09,0.11c-0.03,0.02-0.08,0.04-0.12,0.04c-0.05,0-0.12-0.03-0.19-0.08
			c-0.07-0.05-0.17-0.12-0.28-0.18c-0.11-0.07-0.25-0.13-0.4-0.18c-0.16-0.05-0.35-0.08-0.57-0.08c-0.21,0-0.4,0.03-0.56,0.08
			c-0.16,0.06-0.29,0.13-0.4,0.23c-0.11,0.1-0.19,0.21-0.24,0.34c-0.05,0.13-0.08,0.27-0.08,0.42c0,0.19,0.05,0.35,0.14,0.48
			c0.1,0.13,0.22,0.24,0.38,0.33c0.16,0.09,0.33,0.17,0.53,0.24c0.2,0.07,0.4,0.13,0.61,0.21c0.21,0.07,0.41,0.15,0.61,0.24
			c0.2,0.09,0.38,0.2,0.53,0.34c0.16,0.14,0.28,0.3,0.38,0.5c0.1,0.2,0.14,0.44,0.14,0.73c0,0.3-0.05,0.59-0.15,0.86
			c-0.1,0.27-0.25,0.5-0.45,0.7c-0.2,0.2-0.44,0.35-0.73,0.47c-0.29,0.11-0.62,0.17-0.99,0.17c-0.45,0-0.86-0.08-1.23-0.24
			c-0.37-0.16-0.68-0.38-0.95-0.66l0.27-0.45c0.03-0.04,0.06-0.07,0.09-0.09c0.04-0.02,0.08-0.04,0.12-0.04
			c0.04,0,0.09,0.02,0.14,0.05c0.05,0.03,0.11,0.08,0.18,0.13c0.07,0.05,0.15,0.11,0.23,0.17c0.09,0.06,0.19,0.12,0.3,0.17
			c0.11,0.05,0.24,0.09,0.38,0.13c0.14,0.03,0.3,0.05,0.48,0.05c0.22,0,0.42-0.03,0.6-0.09c0.17-0.06,0.32-0.15,0.44-0.26
			c0.12-0.11,0.21-0.25,0.28-0.4c0.06-0.16,0.1-0.33,0.1-0.52c0-0.21-0.05-0.38-0.14-0.52c-0.1-0.13-0.22-0.25-0.38-0.34
			s-0.33-0.17-0.53-0.23c-0.2-0.06-0.4-0.13-0.61-0.19c-0.21-0.07-0.41-0.14-0.61-0.23c-0.2-0.09-0.38-0.2-0.53-0.34
			c-0.16-0.14-0.28-0.31-0.38-0.52c-0.1-0.21-0.14-0.47-0.14-0.77c0-0.25,0.05-0.48,0.14-0.71c0.1-0.23,0.23-0.43,0.42-0.61
			c0.18-0.18,0.41-0.32,0.67-0.43c0.27-0.11,0.57-0.16,0.92-0.16c0.39,0,0.74,0.06,1.06,0.18c0.32,0.12,0.6,0.3,0.84,0.53
			L145.43,68.9z"/>
	</g>
</g>
</svg>
